<svg xmlns="http://www.w3.org/2000/svg" xmlns:xlink="http://www.w3.org/1999/xlink" width="840" height="255.39"><rect width="840" height="255.39" rx="5" ry="5" class="a"/><svg y="0%" x="0%"><circle cx="20" cy="20" r="6" fill="#ff5f58"/><circle cx="40" cy="20" r="6" fill="#ffbd2e"/><circle cx="60" cy="20" r="6" fill="#18c132"/></svg><svg height="195.39" viewBox="0 0 80 19.539" width="800" x="15" xmlns="http://www.w3.org/2000/svg" xmlns:xlink="http://www.w3.org/1999/xlink" y="50"><style>@keyframes q{0%{transform:translateX(0)}17.4%{transform:translateX(-80px)}17.5%{transform:translateX(-240px)}17.6%{transform:translateX(-320px)}19.3%{transform:translateX(-400px)}31.8%{transform:translateX(-560px)}32.5%{transform:translateX(-640px)}33.5%{transform:translateX(-720px)}34.6%{transform:translateX(-800px)}41.9%{transform:translateX(-880px)}51%{transform:translateX(-960px)}54.8%{transform:translateX(-1040px)}69.6%{transform:translateX(-1120px)}71.1%{transform:translateX(-1280px)}72.2%{transform:translateX(-1440px)}72.7%{transform:translateX(-1600px)}74%{transform:translateX(-1760px)}75.6%{transform:translateX(-1920px)}77.7%{transform:translateX(-2000px)}77.8%{transform:translateX(-2320px)}81%{transform:translateX(-2400px)}81.2%{transform:translateX(-2480px)}81.3%{transform:translateX(-2560px)}82.4%{transform:translateX(-2800px)}to{transform:translateX(-2880px)}}.a{fill:#282d35}.f,.g,.h,.i{fill:#a8cc8c;font-weight:700;white-space:pre}.g,.h,.i{fill:#66c2cd}.h,.i{fill:#71bef2}.i{fill:#e88388}.j,.k,.l,.m{fill:#b9c0cb;white-space:pre}.k,.l,.m{fill:#6f7783}.l,.m{fill:#a8cc8c}.m{fill:#b9c0cb;font-weight:700}</style><g font-family="Monaco,Consolas,Menlo,'Bitstream Vera Sans Mono','Powerline Symbols',monospace" font-size="1.67"><defs><symbol id="1"><text y="1.67" class="f">➜</text><text x="3.006" y="1.67" class="g">weather-cli-bun</text><text x="19.038" y="1.67" class="h">git:(</text><text x="24.048" y="1.67" class="i">main</text><text x="28.056" y="1.67" class="h">)</text></symbol><symbol id="2"><text y="1.67" class="f">➜</text><text x="3.006" y="1.67" class="g">weather-cli-bun</text><text x="19.038" y="1.67" class="h">git:(</text><text x="24.048" y="1.67" class="i">main</text><text x="28.056" y="1.67" class="h">)</text><text x="30.06" y="1.67" class="j">bun</text><text x="34.068" y="1.67" class="k">run</text><text x="38.076" y="1.67" class="k">index.ts</text></symbol><symbol id="3"><text y="1.67" class="f">➜</text><text x="3.006" y="1.67" class="g">weather-cli-bun</text><text x="19.038" y="1.67" class="h">git:(</text><text x="24.048" y="1.67" class="i">main</text><text x="28.056" y="1.67" class="h">)</text><text x="30.06" y="1.67" class="j">bun</text><text x="34.068" y="1.67" class="j">run</text><text x="38.076" y="1.67" class="j">index.ts</text></symbol><symbol id="4"><text y="1.67" class="l">?</text><text x="2.004" y="1.67" class="m">Where</text><text x="8.016" y="1.67" class="m">would</text><text x="14.028" y="1.67" class="m">you</text><text x="18.036" y="1.67" class="m">like</text><text x="23.046" y="1.67" class="m">to</text><text x="26.052" y="1.67" class="m">check</text><text x="32.064" y="1.67" class="m">the</text><text x="36.072" y="1.67" class="m">weather?</text><text x="45.09" y="1.67" style="white-space:pre" fill="#66c2cd">London</text></symbol><symbol id="5"><text y="1.67" class="j">Weather:</text><text x="9.018" y="1.67" class="j">Clouds</text><text x="16.032" y="1.67" class="j">-</text><text x="18.036" y="1.67" class="j">few</text><text x="22.044" y="1.67" class="j">clouds</text></symbol><symbol id="6"><text y="1.67" class="j">Temperature:</text><text x="13.026" y="1.67" class="j">6.77°C</text></symbol><symbol id="a"><path fill="transparent" d="M0 0h80v9H0z"/></symbol><symbol id="b"><path fill="#6f7683" d="M0 0h1.102v2.171H0z"/></symbol></defs><path class="a" d="M0 0h80v19.539H0z"/><g style="animation-duration:9.826425s;animation-iteration-count:infinite;animation-name:q;animation-timing-function:steps(1,end)"><svg width="2960"><svg><use xlink:href="#a"/><use xlink:href="#b" x="-.004"/></svg><svg x="80"><use xlink:href="#a"/><use xlink:href="#b" x="-.004"/></svg><svg x="160"><use xlink:href="#a"/><use xlink:href="#b" x="-.004"/></svg><svg x="240"><use xlink:href="#a"/><use xlink:href="#b" x="-.004"/></svg><svg x="320"><use xlink:href="#a"/><use xlink:href="#b" x="-.004"/></svg><svg x="400"><use xlink:href="#a"/><use xlink:href="#b" x="29.996"/><use xlink:href="#1"/></svg><svg x="480"><use xlink:href="#a"/><use xlink:href="#b" x="30.996"/><text y="1.67" class="f">➜</text><text x="3.006" y="1.67" class="g">weather-cli-bun</text><text x="19.038" y="1.67" class="h">git:(</text><text x="24.048" y="1.67" class="i">main</text><text x="28.056" y="1.67" class="h">)</text><text x="30.06" y="1.67" class="j">b</text></svg><svg x="560"><use xlink:href="#a"/><use xlink:href="#b" x="30.996"/><text y="1.67" class="f">➜</text><text x="3.006" y="1.67" class="g">weather-cli-bun</text><text x="19.038" y="1.67" class="h">git:(</text><text x="24.048" y="1.67" class="i">main</text><text x="28.056" y="1.67" class="h">)</text><text x="30.06" y="1.67" class="j">b</text><text x="31.062" y="1.67" class="k">un</text><text x="34.068" y="1.67" class="k">run</text><text x="38.076" y="1.67" class="k">index.ts</text></svg><svg x="640"><use xlink:href="#a"/><use xlink:href="#b" x="31.996"/><text y="1.67" class="f">➜</text><text x="3.006" y="1.67" class="g">weather-cli-bun</text><text x="19.038" y="1.67" class="h">git:(</text><text x="24.048" y="1.67" class="i">main</text><text x="28.056" y="1.67" class="h">)</text><text x="30.06" y="1.67" class="j">bu</text><text x="32.064" y="1.67" class="k">n</text><text x="34.068" y="1.67" class="k">run</text><text x="38.076" y="1.67" class="k">index.ts</text></svg><svg x="720"><use xlink:href="#a"/><use xlink:href="#b" x="32.996"/><use xlink:href="#2"/></svg><svg x="800"><use xlink:href="#a"/><use xlink:href="#b" x="33.996"/><use xlink:href="#2"/></svg><svg x="880"><use xlink:href="#a"/><use xlink:href="#b" x="45.996"/><use xlink:href="#3"/></svg><svg x="960"><use xlink:href="#a"/><use xlink:href="#b" x="-.004" y="2.146"/><use xlink:href="#3"/></svg><svg x="1040"><use xlink:href="#a"/><use xlink:href="#b" x="55.996" y="2.146"/><use xlink:href="#3"/><text y="3.841" class="l">?</text><text x="2.004" y="3.841" class="m">Where</text><text x="8.016" y="3.841" class="m">would</text><text x="14.028" y="3.841" class="m">you</text><text x="18.036" y="3.841" class="m">like</text><text x="23.046" y="3.841" class="m">to</text><text x="26.052" y="3.841" class="m">check</text><text x="32.064" y="3.841" class="m">the</text><text x="36.072" y="3.841" class="m">weather?</text><text x="45.09" y="3.841" class="j">(Budapest)</text></svg><svg x="1120"><use xlink:href="#a"/><use xlink:href="#b" x="45.996" y="2.146"/><use xlink:href="#3"/><text y="3.841" class="l">?</text><text x="2.004" y="3.841" class="m">Where</text><text x="8.016" y="3.841" class="m">would</text><text x="14.028" y="3.841" class="m">you</text><text x="18.036" y="3.841" class="m">like</text><text x="23.046" y="3.841" class="m">to</text><text x="26.052" y="3.841" class="m">check</text><text x="32.064" y="3.841" class="m">the</text><text x="36.072" y="3.841" class="m">weather?</text><text x="45.09" y="3.841" class="j">L</text></svg><svg x="1200"><use xlink:href="#a"/><use xlink:href="#b" x="-.004" y="2.146"/><use xlink:href="#3"/></svg><svg x="1280"><use xlink:href="#a"/><use xlink:href="#b" x="46.996" y="2.146"/><use xlink:href="#3"/><text y="3.841" class="l">?</text><text x="2.004" y="3.841" class="m">Where</text><text x="8.016" y="3.841" class="m">would</text><text x="14.028" y="3.841" class="m">you</text><text x="18.036" y="3.841" class="m">like</text><text x="23.046" y="3.841" class="m">to</text><text x="26.052" y="3.841" class="m">check</text><text x="32.064" y="3.841" class="m">the</text><text x="36.072" y="3.841" class="m">weather?</text><text x="45.09" y="3.841" class="j">Lo</text></svg><svg x="1360"><use xlink:href="#a"/><use xlink:href="#b" x="-.004" y="2.146"/><use xlink:href="#3"/></svg><svg x="1440"><use xlink:href="#a"/><use xlink:href="#b" x="47.996" y="2.146"/><use xlink:href="#3"/><text y="3.841" class="l">?</text><text x="2.004" y="3.841" class="m">Where</text><text x="8.016" y="3.841" class="m">would</text><text x="14.028" y="3.841" class="m">you</text><text x="18.036" y="3.841" class="m">like</text><text x="23.046" y="3.841" class="m">to</text><text x="26.052" y="3.841" class="m">check</text><text x="32.064" y="3.841" class="m">the</text><text x="36.072" y="3.841" class="m">weather?</text><text x="45.09" y="3.841" class="j">Lon</text></svg><svg x="1520"><use xlink:href="#a"/><use xlink:href="#b" x="-.004" y="2.146"/><use xlink:href="#3"/></svg><svg x="1600"><use xlink:href="#a"/><use xlink:href="#b" x="48.996" y="2.146"/><use xlink:href="#3"/><text y="3.841" class="l">?</text><text x="2.004" y="3.841" class="m">Where</text><text x="8.016" y="3.841" class="m">would</text><text x="14.028" y="3.841" class="m">you</text><text x="18.036" y="3.841" class="m">like</text><text x="23.046" y="3.841" class="m">to</text><text x="26.052" y="3.841" class="m">check</text><text x="32.064" y="3.841" class="m">the</text><text x="36.072" y="3.841" class="m">weather?</text><text x="45.09" y="3.841" class="j">Lond</text></svg><svg x="1680"><use xlink:href="#a"/><use xlink:href="#b" x="-.004" y="2.146"/><use xlink:href="#3"/></svg><svg x="1760"><use xlink:href="#a"/><use xlink:href="#b" x="49.996" y="2.146"/><use xlink:href="#3"/><text y="3.841" class="l">?</text><text x="2.004" y="3.841" class="m">Where</text><text x="8.016" y="3.841" class="m">would</text><text x="14.028" y="3.841" class="m">you</text><text x="18.036" y="3.841" class="m">like</text><text x="23.046" y="3.841" class="m">to</text><text x="26.052" y="3.841" class="m">check</text><text x="32.064" y="3.841" class="m">the</text><text x="36.072" y="3.841" class="m">weather?</text><text x="45.09" y="3.841" class="j">Londo</text></svg><svg x="1840"><use xlink:href="#a"/><use xlink:href="#b" x="-.004" y="2.146"/><use xlink:href="#3"/></svg><svg x="1920"><use xlink:href="#a"/><use xlink:href="#b" x="50.996" y="2.146"/><use xlink:href="#3"/><text y="3.841" class="l">?</text><text x="2.004" y="3.841" class="m">Where</text><text x="8.016" y="3.841" class="m">would</text><text x="14.028" y="3.841" class="m">you</text><text x="18.036" y="3.841" class="m">like</text><text x="23.046" y="3.841" class="m">to</text><text x="26.052" y="3.841" class="m">check</text><text x="32.064" y="3.841" class="m">the</text><text x="36.072" y="3.841" class="m">weather?</text><text x="45.09" y="3.841" class="j">London</text></svg><svg x="2000"><use xlink:href="#a"/><use xlink:href="#b" x="-.004" y="2.146"/><use xlink:href="#3"/></svg><svg x="2080"><use xlink:href="#a"/><use xlink:href="#b" x="50.996" y="2.146"/><use xlink:href="#3"/><text y="3.841" style="white-space:pre" fill="#dbab79">⠋</text><text x="2.004" y="3.841" class="m">Where</text><text x="8.016" y="3.841" class="m">would</text><text x="14.028" y="3.841" class="m">you</text><text x="18.036" y="3.841" class="m">like</text><text x="23.046" y="3.841" class="m">to</text><text x="26.052" y="3.841" class="m">check</text><text x="32.064" y="3.841" class="m">the</text><text x="36.072" y="3.841" class="m">weather?</text><text x="45.09" y="3.841" class="j">London</text></svg><svg x="2160"><use xlink:href="#a"/><use xlink:href="#b" x="-.004" y="2.146"/><use xlink:href="#3"/></svg><svg x="2240"><use xlink:href="#a"/><use xlink:href="#b" x="50.996" y="2.146"/><use xlink:href="#3"/><use xlink:href="#4" y="2.171"/></svg><svg x="2320"><use xlink:href="#a"/><use xlink:href="#b" x="-.004" y="4.317"/><use xlink:href="#3"/><use xlink:href="#4" y="2.171"/></svg><svg x="2400"><use xlink:href="#a"/><use xlink:href="#b" x="-.004" y="8.659"/><use xlink:href="#3"/><use xlink:href="#4" y="2.171"/><use xlink:href="#5" y="4.342"/><use xlink:href="#6" y="6.513"/></svg><svg x="2480"><use xlink:href="#a"/><use xlink:href="#b" x="-.004" y="8.659"/><use xlink:href="#3"/><use xlink:href="#4" y="2.171"/><use xlink:href="#5" y="4.342"/><use xlink:href="#6" y="6.513"/></svg><svg x="2560"><use xlink:href="#a"/><use xlink:href="#b" x="-.004" y="8.659"/><use xlink:href="#3"/><use xlink:href="#4" y="2.171"/><use xlink:href="#5" y="4.342"/><use xlink:href="#6" y="6.513"/></svg><svg x="2640"><use xlink:href="#a"/><use xlink:href="#b" x="29.996" y="8.659"/><use xlink:href="#3"/><use xlink:href="#4" y="2.171"/><use xlink:href="#5" y="4.342"/><use xlink:href="#6" y="6.513"/><use xlink:href="#1" y="8.684"/></svg><svg x="2720"><use xlink:href="#a"/><use xlink:href="#b" x="29.996" y="8.659"/><use xlink:href="#3"/><use xlink:href="#4" y="2.171"/><use xlink:href="#5" y="4.342"/><use xlink:href="#6" y="6.513"/><use xlink:href="#1" y="8.684"/></svg><svg x="2800"><use xlink:href="#a"/><use xlink:href="#b" x="29.996" y="8.659"/><use xlink:href="#3"/><use xlink:href="#4" y="2.171"/><use xlink:href="#5" y="4.342"/><use xlink:href="#6" y="6.513"/><use xlink:href="#1" y="8.684"/></svg><svg x="2880"><use xlink:href="#a"/><use xlink:href="#b" x="-.004" y="10.83"/><use xlink:href="#3"/><use xlink:href="#4" y="2.171"/><use xlink:href="#5" y="4.342"/><use xlink:href="#6" y="6.513"/><use xlink:href="#1" y="8.684"/></svg></svg></g></g></svg></svg>